<?xml version="1.0" encoding="UTF-8" standalone="no"?>
<!-- Created with Inkscape (http://www.inkscape.org/) -->

<svg
   width="115.18285mm"
   height="135.43193mm"
   viewBox="0 0 115.18285 135.43193"
   version="1.1"
   id="svg10174"
   xmlns="http://www.w3.org/2000/svg"
   xmlns:svg="http://www.w3.org/2000/svg">
  <defs
     id="defs10171" />
  <g
     id="layer1"
     transform="translate(-46.598651,-29.858593)">
    <path
       style="fill:#0180ff;stroke:none;stroke-width:0.264583"
       d="m 103.14596,29.950004 c -3.699138,0.576562 -6.016358,3.311464 -8.731248,5.625457 -2.45692,2.093966 -5.20567,3.757428 -7.9375,5.454386 -6.11346,3.797644 -13.5845,5.669703 -20.6375,6.682343 -7.271541,1.044019 -14.809551,1.251347 -17.960421,9.373738 -1.50856,3.888845 -1.04212,8.095718 -1.0906,12.170838 -0.0621,5.222343 -0.38088,10.379343 -0.0227,15.610413 0.58063,8.47884 0.93549,16.776171 2.78181,25.135421 3.82505,17.31804 13.425911,32.61836 27.933541,42.93949 5.8002,4.12618 12.19306,7.41945 18.78542,10.08195 2.77865,1.1221 5.926928,2.59847 8.995828,2.20001 6.21982,-0.80804 12.85743,-4.62121 18.25625,-7.63349 5.8465,-3.26179 11.29982,-7.25011 16.13958,-11.87953 16.45788,-15.74324 21.01718,-38.27224 21.97074,-60.050101 0.25982,-5.93249 0.1389,-11.79803 -0.006,-17.727083 -0.12145,-4.951679 0.2659,-9.461766 -2.70801,-13.758335 -3.92589,-5.671873 -9.95204,-5.663168 -16.08138,-6.42575 -5.32685,-0.662729 -10.67329,-2.003584 -15.61042,-4.123902 -4.70217,-2.019353 -9.32973,-4.714557 -13.22916,-8.050583 -3.14193,-2.687955 -6.24708,-6.342348 -10.84791,-5.625272 z"
       id="path10511" />
  </g>
</svg>
